:SAMPLES-PER-SECOND 30
:FULLY-SPECIFIED
:DEGREES
367
root  -2.95756 38.3753 15.632 -179.503 -12.9435 178.304
RightUpLeg  -9.34299 -21.0791 -8.60226
RightLeg  30.0563 -15.9252 -9.96729
RightFoot  -12.4279 0.0831974 17.5945
RightToes  -1.39699e-009 0 -3.6325e-017
Spine  12.2293 0.338101 0.109268
Spine1  20.3026 -0.973849 4.19171
HEad  -14.0726 -11.7602 4.36914
LeftShoulder1  1.76546 -4.46186 -15.3589
LeftArm  10.7483 8.08863 -55.6873
LeftForeArm  38.9519 -75.0329 -42.7869
LeftHand  -1.81681 -3.23679 24.3874
RightShoulder  1.04044 1.61601 13.4158
RightArm  1.34461 4.71736 58.4686
RightForeArm  24.1656 76.5742 59.1391
RightHand  -0.779196 0.208715 -16.1638
LeftUpLeg  -19.0057 -10.8971 12.4985
LeftLeg  20.5599 -0.106158 0.277839
LeftFoot  -1.55985 1.27141 -14.6895
LeftToes  3.40148e-010 1.80944e-010 1.01921e-010
368
root  -2.54363 38.4784 15.6746 -178.608 -19.0625 178.152
RightUpLeg  -8.72511 -23.8612 -8.04874
RightLeg  29.7409 -18.8074 -11.487
RightFoot  -12.1403 0.0450725 18.242
RightToes  -1.39699e-009 0 -3.6325e-017
Spine  12.4326 1.45323 0.749786
Spine1  20.1517 0.0209205 4.93786
HEad  -15.9889 -18.7895 7.67389
LeftShoulder1  1.72438 -4.62544 -14.3114
LeftArm  9.62993 6.61674 -55.9426
LeftForeArm  40.6501 -75.5397 -44.894
LeftHand  -1.95397 -3.23467 26.1631
RightShoulder  1.16317 2.10707 13.8657
RightArm  6.71571 5.94414 58.9109
RightForeArm  16.9322 75.3785 51.8443
RightHand  -0.956199 1.07092 -17.2281
LeftUpLeg  -20.8399 -8.87927 11.3385
LeftLeg  18.5512 1.6716 0.940907
LeftFoot  2.24735 1.61209 -13.5906
LeftToes  3.40148e-010 1.80944e-010 1.01921e-010
369
root  -2.21454 38.6175 15.6234 -177.314 -24.5344 177.667
RightUpLeg  -8.32079 -25.0089 -7.68773
RightLeg  29.1656 -21.6509 -12.7811
RightFoot  -11.3487 -0.0776295 19.7413
RightToes  -1.39699e-009 0 -3.6325e-017
Spine  12.5378 2.93662 0.898625
Spine1  19.6587 1.26596 5.89277
HEad  -18.2391 -25.6309 11.2303
LeftShoulder1  1.57874 -4.48161 -12.7236
LeftArm  9.13439 5.18571 -56.5263
LeftForeArm  46.3706 -76.9079 -51.9158
LeftHand  -2.05359 -3.26974 27.3347
RightShoulder  1.22917 2.41072 13.9194
RightArm  12.2067 6.62171 59.1666
RightForeArm  13.4751 75.1623 51.4936
RightHand  -1.0595 1.28168 -18.4851
LeftUpLeg  -22.1479 -5.76078 9.19992
LeftLeg  16.4364 3.10982 1.36281
LeftFoot  5.17688 1.81564 -12.6822
LeftToes  3.40148e-010 1.80944e-010 1.01921e-010
370
root  -2.06019 38.7573 15.504 -175.997 -29.7252 177.22
RightUpLeg  -7.64073 -24.8304 -7.5545
RightLeg  28.3826 -23.7126 -13.4334
RightFoot  -10.2327 -0.287803 22.1477
RightToes  -1.39699e-009 0 -3.6325e-017
Spine  12.4036 4.10903 0.935354
Spine1  19.2461 2.08142 7.08956
HEad  -20.4753 -31.2433 14.1561
LeftShoulder1  1.42506 -4.21296 -11.285
LeftArm  8.88025 4.22394 -56.4795
LeftForeArm  56.7568 -78.3925 -63.5016
LeftHand  -2.08708 -3.30413 27.6537
RightShoulder  1.24664 2.6018 13.5137
RightArm  17.0473 7.21617 59.6782
RightForeArm  12.9307 75.5753 54.4918
RightHand  -1.03438 1.00208 -18.8045
LeftUpLeg  -23.2423 -3.22719 6.52564
LeftLeg  16.3529 2.29253 1.07083
LeftFoot  5.36455 1.65551 -11.4503
LeftToes  3.40148e-010 1.80944e-010 1.01921e-010
371
root  -2.10875 38.8783 15.3574 -175.132 -34.7038 177.224
RightUpLeg  -6.45416 -23.8483 -7.52391
RightLeg  27.4467 -24.4825 -13.1996
RightFoot  -9.0856 -0.547929 24.3466
RightToes  -1.39699e-009 0 -3.6325e-017
Spine  12.0655 4.61844 1.24519
Spine1  19.1064 2.19585 8.41613
HEad  -22.2886 -35.1885 15.982
LeftShoulder1  1.30803 -3.94825 -10.2684
LeftArm  8.43126 4.05447 -55.5864
LeftForeArm  70.2974 -79.3264 -77.4715
LeftHand  -2.081 -3.30786 27.5649
RightShoulder  1.24457 2.71569 13.0573
RightArm  21.2311 7.89095 60.3594
RightForeArm  16.0263 76.2332 59.0491
RightHand  -0.919806 0.557349 -17.9584
LeftUpLeg  -23.9638 -3.48201 4.63391
LeftLeg  18.2338 0.0386975 0.332011
LeftFoot  3.38903 1.23327 -9.66531
LeftToes  3.40148e-010 1.80944e-010 1.01921e-010
372
root  -2.31468 38.9707 15.2092 -174.773 -38.8051 177.59
RightUpLeg  -5.16152 -22.2219 -7.56833
RightLeg  26.5495 -23.2509 -12.1419
RightFoot  -8.18408 -0.773058 25.6188
RightToes  -1.39699e-009 0 -3.6325e-017
Spine  11.8301 4.77488 1.62802
Spine1  18.964 2.05439 9.49357
HEad  -23.6581 -37.7388 17.0856
LeftShoulder1  1.21046 -3.68244 -9.47735
LeftArm  7.80498 4.73738 -54.2984
LeftForeArm  83.4315 -79.5775 -90.6441
LeftHand  -2.06159 -3.24371 27.5127
RightShoulder  1.2396 2.74798 12.8588
RightArm  24.832 8.19044 60.9342
RightForeArm  21.9055 76.9578 65.0951
RightHand  -0.779263 0.0774652 -16.5602
LeftUpLeg  -23.9621 -5.10458 3.78787
LeftLeg  19.5714 -1.7583 -0.36718
LeftFoot  1.59192 0.862085 -7.70132
LeftToes  3.40148e-010 1.80944e-010 1.01921e-010
373
root  -2.59931 39.0199 15.0727 -174.397 -41.5592 177.777
RightUpLeg  -4.36139 -19.5406 -7.92853
RightLeg  26.0268 -19.672 -10.3615
RightFoot  -7.78651 -0.886129 26.4011
RightToes  -1.39699e-009 0 -3.6325e-017
Spine  11.9469 5.00298 1.45197
Spine1  18.4691 2.09312 10.1486
HEad  -24.8266 -39.3823 18.0376
LeftShoulder1  1.11734 -3.40439 -8.72858
LeftArm  7.30186 5.97493 -52.943
LeftForeArm  93.491 -79.3749 -101.015
LeftHand  -2.02308 -3.07639 27.5301
RightShoulder  1.2346 2.77793 12.684
RightArm  27.3699 7.65683 61.522
RightForeArm  27.43 77.4761 71.2261
RightHand  -0.676631 -0.323246 -15.5116
LeftUpLeg  -23.695 -5.3376 3.16841
LeftLeg  19.1939 -2.97563 -0.825505
LeftFoot  0.961356 0.732351 -6.85151
LeftToes  3.40148e-010 1.80944e-010 1.01921e-010
374
root  -2.89998 38.9744 14.9642 -173.665 -43.4727 177.521
RightUpLeg  -4.30078 -15.4216 -8.7984
RightLeg  26.5501 -14.5333 -7.97522
RightFoot  -8.13853 -0.81454 26.661
RightToes  -1.39699e-009 0 -3.6325e-017
Spine  12.4961 5.25451 0.647545
Spine1  17.5394 2.19225 10.5365
HEad  -25.9468 -40.4203 18.9944
LeftShoulder1  1.03891 -3.17069 -8.04767
LeftArm  7.0896 7.13114 -51.4591
LeftForeArm  99.3807 -79.0227 -107.712
LeftHand  -1.94926 -2.81479 27.3749
RightShoulder  1.2348 2.87568 12.335
RightArm  28.391 6.53156 62.2904
RightForeArm  29.5179 77.6608 74.8104
RightHand  -0.575719 -0.840332 -14.6463
LeftUpLeg  -23.9122 -4.17994 2.29629
LeftLeg  18.6474 -4.55156 -1.38999
LeftFoot  0.590339 0.75212 -7.23132
LeftToes  3.40148e-010 1.80944e-010 1.01921e-010
375
root  -3.16734 38.8241 14.9032 -172.833 -45.3682 176.953
RightUpLeg  -4.62016 -11.2041 -10.0703
RightLeg  28.131 -8.44511 -5.08844
RightFoot  -9.04795 -0.581887 25.4844
RightToes  -1.39699e-009 0 -3.6325e-017
Spine  13.5147 5.23373 -0.261501
Spine1  16.5204 2.06875 10.6765
HEad  -27.2299 -41.0145 20.0344
LeftShoulder1  0.991874 -3.06027 -7.53786
LeftArm  7.14581 7.34248 -49.7921
LeftForeArm  100.287 -78.8068 -110.022
LeftHand  -1.81999 -2.41194 26.8942
RightShoulder  1.24995 3.02608 12.0941
RightArm  28.1526 5.53303 62.9125
RightForeArm  28.1886 77.6389 75.5458
RightHand  -0.390783 -1.97903 -13.0324
LeftUpLeg  -24.7411 -3.9407 1.34691
LeftLeg  19.5781 -6.10008 -2.08032
LeftFoot  -0.334904 0.715019 -7.3868
LeftToes  3.40148e-010 1.80944e-010 1.01921e-010
376
root  -3.36853 38.6339 14.8851 -172.241 -47.3627 176.273
RightUpLeg  -4.77323 -7.40419 -11.4593
RightLeg  30.1182 -2.54836 -1.83622
RightFoot  -9.87072 -0.372275 23.4693
RightToes  -1.39699e-009 0 -3.6325e-017
Spine  14.7883 4.98235 -0.864041
Spine1  16.0413 1.80615 10.4546
HEad  -28.9863 -41.403 21.4592
LeftShoulder1  0.985155 -3.15936 -7.17284
LeftArm  7.42832 5.89508 -48.3238
LeftForeArm  95.3846 -78.8884 -107.174
LeftHand  -1.62739 -1.77279 26.216
RightShoulder  1.29858 3.24364 12.2071
RightArm  27.3215 5.08568 62.9241
RightForeArm  25.3498 77.5407 74.9181
RightHand  -0.183166 -3.55484 -10.8078
LeftUpLeg  -25.6772 -5.26118 0.571883
LeftLeg  21.5235 -6.67204 -2.56131
LeftFoot  -1.41648 0.576364 -6.5329
LeftToes  3.40148e-010 1.80944e-010 1.01921e-010
377
root  -3.49791 38.4669 14.8749 -171.863 -49.0181 175.678
RightUpLeg  -4.75877 -4.10843 -12.6303
RightLeg  31.8029 2.33455 1.31319
RightFoot  -10.2062 -0.296865 22.6676
RightToes  -1.39699e-009 0 -3.6325e-017
Spine  15.796 4.86349 -1.24421
Spine1  16.3802 1.69907 10.0347
HEad  -31.07 -41.858 23.299
LeftShoulder1  1.01366 -3.52882 -6.75874
LeftArm  7.98687 2.69784 -47.7676
LeftForeArm  84.8545 -79.1514 -98.7366
LeftHand  -1.39904 -0.944625 25.5025
RightShoulder  1.38301 3.61416 12.4116
RightArm  26.2115 4.98847 62.3686
RightForeArm  22.1861 77.4013 73.3441
RightHand  -0.0881745 -4.47047 -9.18326
LeftUpLeg  -26.4427 -6.27248 -0.0616534
LeftLeg  23.234 -6.88907 -2.9015
LeftFoot  -2.09861 0.460119 -5.53994
LeftToes  3.40148e-010 1.80944e-010 1.01921e-010
378
root  -3.56442 38.3459 14.8435 -171.443 -50.2538 175.32
RightUpLeg  -4.90597 -1.89589 -13.4551
RightLeg  32.9501 4.65537 2.99231
RightFoot  -10.0206 -0.343419 23.4254
RightToes  -1.39699e-009 0 -3.6325e-017
Spine  16.2209 5.0147 -1.66474
Spine1  17.1075 1.76481 9.80136
HEad  -32.744 -42.4925 25.0266
LeftShoulder1  1.05568 -4.0809 -6.20262
LeftArm  8.92803 -1.77861 -48.5195
LeftForeArm  71.2322 -79.2022 -86.186
LeftHand  -1.1554 -0.0698454 24.4462
RightShoulder  1.47864 4.11942 12.3733
RightArm  24.8307 4.82491 61.6031
RightForeArm  19.2341 77.2197 70.94
RightHand  -0.0957404 -4.3428 -8.7492
LeftUpLeg  -27.1927 -6.0972 -0.492433
LeftLeg  24.3418 -7.81043 -3.51348
LeftFoot  -2.47556 0.430031 -5.35672
LeftToes  3.40148e-010 1.80944e-010 1.01921e-010
379
root  -3.58811 38.3026 14.8001 -171.028 -51.4996 175.348
RightUpLeg  -5.06919 -1.56178 -13.9807
RightLeg  33.3524 2.92 1.82165
RightFoot  -9.08823 -0.530047 23.5522
RightToes  -1.39699e-009 0 -3.6325e-017
Spine  16.2544 5.14543 -1.94137
Spine1  17.6239 1.72748 9.97765
HEad  -33.4817 -43.2436 26.1375
LeftShoulder1  1.09001 -4.58858 -5.69581
LeftArm  10.2767 -6.98861 -50.2579
LeftForeArm  59.467 -78.8252 -74.185
LeftHand  -0.870839 0.898454 22.3714
RightShoulder  1.55098 4.55506 12.2019
RightArm  23.4556 4.48853 60.7776
RightForeArm  17.4544 77.092 69.3855
RightHand  -0.116328 -4.08434 -8.9591
LeftUpLeg  -27.849 -5.78495 -0.533023
LeftLeg  24.7669 -9.24825 -4.29604
LeftFoot  -2.60637 0.447723 -5.65449
LeftToes  3.40148e-010 1.80944e-010 1.01921e-010
